<svg width="132" height="132" viewBox="0 0 132 132" fill="none" xmlns="http://www.w3.org/2000/svg">
<rect width="132" height="132" rx="66" fill="#282828"/>
<path d="M80.9651 90.278C80.9651 89.0646 81.9496 88.0801 83.163 88.0801H101.221C109.83 70.2914 111.25 56.5067 105.697 46.8834C97.8889 33.3527 74.6433 34.005 74.6433 34.005C53.6778 34.005 40.4377 48.6608 40.4377 48.6608C33.6809 55.8273 26.8287 69.403 23.8117 78.5377C23.8117 78.5377 23.2965 80.1198 23.1747 80.6554C23.0826 81.0598 23 81.4662 23 81.8829V92.8737C23 94.0489 23.4576 95.1534 24.2891 95.9835C25.1188 96.8124 26.2221 97.2693 27.3958 97.2693H27.4004L93.8241 97.2592C95.4211 97.2572 96.8931 96.3224 97.6658 94.9255C98.1217 94.1013 98.5621 93.2854 98.9905 92.4759H83.163C81.9496 92.4759 80.9651 91.4924 80.9651 90.278ZM66.2502 64.7338C63.4415 66.4051 56.925 68.1184 51.1753 69.6305C48.5189 70.3292 46.0098 70.9891 43.8249 71.6427C40.2546 72.7118 36.3705 73.7206 32.2534 74.649C36.2582 64.9176 42.0773 55.9354 47.4446 51.2651C47.4446 51.2651 69.5332 51.2651 71.5175 51.2651C73.5017 51.2651 74.8044 52.0962 74.8143 53.7142C74.8143 57.6452 71.9329 61.353 66.2502 64.7338Z" fill="#FF0000"/>
<path d="M69.5394 53.1338C68.3273 53.1338 67.3416 54.1198 67.3416 55.3317C67.3416 56.5438 68.3273 57.5296 69.5394 57.5296C70.752 57.5296 71.7373 56.5438 71.7373 55.3317C71.7373 54.1195 70.7516 53.1338 69.5394 53.1338Z" fill="#FF0000"/>
</svg>
